<?xml version="1.0" encoding="UTF-8"?>
<svg version="1.1" xmlns="http://www.w3.org/2000/svg" width="1500" height="1500">
<path d="M0 0 C3.23386263 1.44031197 5.44286712 3.83935768 7.89275676 6.32447821 C8.75000696 7.17608672 8.75000696 7.17608672 9.62457535 8.04489943 C11.5518521 9.96318072 13.46818261 11.8920426 15.38480216 13.82096773 C16.77268443 15.20682702 18.16122374 16.59202858 19.55036545 17.97662544 C23.37692885 21.79451057 27.19403075 25.62173641 31.00970143 29.45050377 C35.12233459 33.5740047 39.24358488 37.68887697 43.36379081 41.80480868 C51.4397501 49.87512408 59.50769068 57.95341085 67.57303116 66.03433699 C76.48863169 74.96656478 85.41140751 83.8916086 94.3350148 92.81583607 C111.58175183 110.06378519 128.82122962 127.31897122 146.05623466 144.5786429 C162.32161677 160.86729901 178.59153419 177.15140627 194.86678153 193.4302054 C195.36777083 193.93130621 195.86876012 194.43240702 196.38493091 194.94869271 C198.40475043 196.96896109 200.4245734 198.98922604 202.44439656 201.00949079 C203.45100086 202.01631547 204.45760471 203.02314061 205.4642081 204.0299662 C206.46836404 205.03434351 207.47252128 206.03871951 208.47667982 207.04309422 C224.48050419 223.05043666 240.48034856 239.06175655 256.47952432 255.07374506 C262.09764397 260.69629811 267.71626067 266.3183539 273.33522246 271.94006533 C282.25233725 280.86161649 291.16777318 289.78483835 300.07982752 298.7114448 C304.15231159 302.7905278 308.2255552 306.86884409 312.30094558 310.9450236 C316.03315089 314.67801764 319.76302943 318.41332032 323.49107298 322.15047049 C324.83879468 323.50069388 326.18734715 324.85008867 327.53682158 326.1985603 C339.75059814 338.40501444 339.75059814 338.40501444 344.9011364 344.47989559 C346.4826983 346.34466774 348.16642377 348.08427859 349.90315849 349.80447298 C350.51224052 350.41033236 351.12132255 351.01619173 351.74886161 351.64041048 C352.35794364 352.24111361 352.96702567 352.84181673 353.59456474 353.46072298 C354.23071708 354.09236361 354.86686942 354.72400423 355.52229911 355.37478548 C357.06489279 356.90578072 358.61063788 358.43359965 360.15706474 359.96072298 C363.49284987 358.50916404 365.68205077 356.6814636 368.23909599 354.10916048 C369.0067327 353.33959017 369.77436942 352.57001986 370.56526786 351.77712923 C371.35868583 350.97146517 372.1521038 350.16580111 372.96956474 349.33572298 C373.75138114 348.55326205 374.53319755 347.77080111 375.33870536 346.96462923 C378.66546691 343.61285444 381.91272558 340.25279801 384.96735698 336.65097052 C390.53771624 330.27763418 396.59452945 324.3712611 402.57593375 318.38795382 C403.9487616 317.01110584 405.32137965 315.63404866 406.69380677 314.25680125 C410.45333423 310.48536624 414.21596594 306.71704185 417.97916049 302.94926637 C422.04154846 298.88090106 426.10111958 294.80972643 430.16113883 290.73899752 C439.95380217 280.92187332 449.75136042 271.10964156 459.54979661 261.29827967 C462.31616205 258.52820008 465.08239795 255.75799121 467.84858757 252.98773605 C485.02540525 235.78569841 502.2037983 218.58523635 519.38700992 201.38958555 C523.36173611 197.41193822 527.33643906 193.43426767 531.31111747 189.45657259 C531.804902 188.96241715 532.29868654 188.46826171 532.80743424 187.95913186 C548.84335314 171.9110376 564.86984007 155.85356597 580.89101506 139.79075348 C597.8333715 122.80444575 614.78481209 105.82725606 631.74646199 88.86021292 C640.99165212 79.61160245 650.23259416 70.35883029 659.46305496 61.09551722 C667.31540719 53.21526261 675.17608838 45.34344111 683.04802229 37.48274534 C687.06701042 33.46896734 691.08175265 29.45116193 695.08581382 25.42248827 C698.74573887 21.74025284 702.4168377 18.06956895 706.0974705 14.40803546 C707.43212503 13.0762065 708.76249726 11.74007059 710.08828159 10.39941143 C711.88078889 8.58801666 713.68776237 6.79246585 715.49945956 5.0002957 C716.01959326 4.46731278 716.53972696 3.93432986 717.07562229 3.38519594 C718.53953171 1.95611286 718.53953171 1.95611286 721.15706474 -0.03927702 C725.20246794 0.08389227 728.03216645 2.90181569 731.09456474 5.33572298 C731.6630413 5.78125521 732.23151786 6.22678744 732.81722099 6.68582064 C747.55927172 18.32278635 761.23165222 30.96123739 774.53206474 44.21072298 C775.79868949 45.47033846 775.79868949 45.47033846 777.09090263 46.75540072 C781.98679406 51.66390168 786.64102734 56.70309227 791.15706474 61.96072298 C792.61151991 63.56840671 794.06927368 65.17312013 795.53206474 66.77322298 C800.26277976 72.02248181 804.72790167 77.45631294 809.15706474 82.96072298 C810.07080915 84.082076 810.98488613 85.20315809 811.89925224 86.32400423 C819.3777741 95.5331763 826.46053926 105.00465388 833.43538505 114.59939486 C835.05913754 116.8264133 836.69587566 119.04318137 838.33675224 121.25759798 C847.82373978 134.12951662 856.53570416 147.50035361 865.15706474 160.96072298 C865.80997489 161.98004915 866.46288505 162.99937533 867.13558036 164.04959017 C874.32347233 175.31600511 881.26880714 186.71019512 887.96956474 198.27322298 C888.83025565 199.75532259 888.83025565 199.75532259 889.70833427 201.26736361 C891.20359055 203.87290823 892.67895065 206.48795627 894.13411552 209.11608797 C894.86310795 210.43064488 895.59686425 211.74256471 896.33382255 213.05267245 C902.9475016 224.86513428 907.92536091 236.63746742 912.03206474 249.52322298 C912.62567047 251.34862603 913.21967426 253.17389967 913.81404716 254.99905306 C930.89323428 307.83022396 944.15413848 361.69628313 950.15706474 416.96072298 C950.27565849 418.03789583 950.39425224 419.11506869 950.51643974 420.22488314 C953.66339476 450.24739604 954.0457995 482.00795482 950.15706474 511.96072298 C950.02815849 512.98117708 949.89925224 514.00163119 949.76643974 515.05300814 C942.95794625 567.33814042 924.90789374 617.6959248 890.15706474 657.96072298 C889.49964286 658.72900423 888.84222099 659.49728548 888.16487724 660.28884798 C876.92824523 673.09436823 864.90106519 684.88675058 851.15706474 694.96072298 C850.58778251 695.38546908 850.01850028 695.81021517 849.43196708 696.24783236 C826.48655473 713.35177097 800.94890566 726.05939047 774.15706474 735.96072298 C773.34431083 736.26204134 772.53155692 736.5633597 771.69417411 736.87380892 C748.66862741 745.27823246 721.3863559 753.30037794 696.71956474 753.02322298 C695.6689788 753.01419955 694.61839286 753.00517611 693.53597099 752.99587923 C692.75093192 752.98427767 691.96589286 752.97267611 691.15706474 752.96072298 C692.42900115 750.23615002 693.80153857 747.9983783 695.73909599 745.70291048 C696.25222343 745.08689974 696.76535087 744.470889 697.29402763 743.83621126 C698.1234185 742.84596956 698.1234185 742.84596956 698.96956474 741.83572298 C767.42813856 658.73682557 801.48035681 553.79893326 794.14168388 440.62209994 C793.84139124 437.7309505 793.50745648 434.84621803 793.15706474 431.96072298 C793.02815849 430.87968294 792.89925224 429.7986429 792.76643974 428.68484408 C785.57143932 370.16717287 767.52392617 314.54786149 741.15706474 261.96072298 C740.72684013 261.09769564 740.29661552 260.2346683 739.8533538 259.34548861 C733.69389634 247.06504024 726.67102023 235.45734727 719.15706474 223.96072298 C715.7963553 226.58371572 712.87132275 229.19200555 710.12752372 232.45681673 C705.41224806 237.90452708 700.29662171 242.94532068 695.19222099 248.02322298 C694.09888804 249.11463294 693.00578537 250.20627361 691.91289359 251.29812533 C689.57302043 253.6348557 687.23160744 255.97002783 684.88896781 258.3039847 C681.178759 262.00058394 677.47244533 265.70107237 673.76668388 269.40212923 C665.2318563 277.92495314 656.69200734 286.44273979 648.15210563 294.96047884 C640.32022414 302.77213925 632.48942711 310.58487876 624.66268283 318.40168673 C620.98469764 322.07471349 617.30429397 325.74529377 613.62196952 329.41397005 C611.32563289 331.70280619 609.03140696 333.99374927 606.73772651 336.28524691 C605.68048939 337.34062452 604.62239456 338.39514378 603.56334144 339.44869906 C596.93391146 346.03267685 596.93391146 346.03267685 590.66280204 352.95498568 C586.09349946 358.2819031 581.07222027 363.1687971 576.10042411 368.11501986 C574.9972391 369.21628193 573.89428433 370.31777468 572.79154044 371.41947848 C570.43038627 373.7774896 568.06769211 376.13394251 565.70377189 378.48918062 C561.95995881 382.21938548 558.22003963 385.95347835 554.48067313 389.68813998 C545.86843999 398.28836882 537.25118572 406.88356082 528.63387901 415.47870547 C520.73108439 423.36127971 512.82937376 431.24493263 504.93171579 439.13265377 C501.2202789 442.83913183 497.50642329 446.54316342 493.7906478 450.24529177 C491.47355257 452.5548872 489.15856739 454.86658897 486.84412795 457.17884547 C485.7772154 458.24389831 484.70944502 459.30809269 483.64071685 460.37132365 C478.57322101 465.41358929 473.62337871 470.49404145 468.96815139 475.92281252 C465.07868304 480.29940501 460.87046975 484.37681761 456.72371513 488.50759798 C455.68799794 489.54303251 454.65250206 490.57868845 453.61720878 491.61454684 C450.82862363 494.40341688 448.03698363 497.18921021 445.24475247 499.97442919 C442.31881628 502.8940803 439.39574418 505.81659609 436.47235709 508.73879915 C430.94616448 514.26189358 425.41742951 519.78243567 419.88775897 525.30204779 C413.5882682 531.5903303 407.29164373 537.8814796 400.99524921 544.17286211 C388.0523571 557.1053241 375.10589971 570.03421152 362.15706474 582.96072298 C358.59566581 581.4447455 356.30995555 579.36272854 353.58508903 576.63598543 C352.6725637 575.72765459 351.76003837 574.81932375 350.81986076 573.88346773 C349.81587306 572.87399664 348.81198542 571.86442603 347.80818778 570.85476595 C346.74549929 569.79315066 345.68237793 568.73196854 344.61885673 567.67118746 C341.7318868 564.78906557 338.85120813 561.90072977 335.97173887 559.01111656 C332.95272316 555.98330866 329.9284278 552.96078274 326.90482169 549.93756014 C321.82313277 544.85493439 316.74533164 539.76845067 311.67000419 534.67947298 C305.81578658 528.80956773 299.95639739 522.9448668 294.09396362 517.08316797 C287.84089195 510.83077417 281.59164499 504.57456816 275.34349686 498.3172546 C273.54994279 496.52157708 271.75568636 494.72660397 269.96126968 492.9317885 C267.12961931 490.09912659 264.30055787 487.26390279 261.47340232 484.42675501 C260.44031949 483.3907738 259.40641464 482.3556115 258.37158996 481.32137018 C249.60261702 472.55546773 249.60261702 472.55546773 245.67703849 467.97772127 C241.10073143 462.64907486 236.07642766 457.75683461 231.10042411 452.80642611 C229.9972391 451.70516403 228.89428433 450.60367128 227.79154044 449.50196749 C225.43038627 447.14395636 223.06769211 444.78750346 220.70377189 442.43226534 C216.95995881 438.70206048 213.22003963 434.96796761 209.48067313 431.23330599 C201.54243813 423.30613583 193.59997629 415.38320688 185.65706474 407.46072298 C177.07982283 398.90554011 168.50332627 390.34961788 159.93171579 381.78879219 C156.2202789 378.08231414 152.50642329 374.37828254 148.7906478 370.6761542 C146.47355257 368.36655877 144.15856739 366.05485699 141.84412795 363.7426005 C140.7772154 362.67754766 139.70944502 361.61335328 138.64071685 360.55012232 C133.58390301 355.51848549 128.64702948 350.44801899 124.0014804 345.03098398 C119.9281768 340.45891178 115.51615979 336.19966738 111.17635185 331.88235384 C110.0813964 330.78932135 108.9866712 329.69605817 107.8921569 328.60258394 C105.54900761 326.26257733 103.20431857 323.92412886 100.85840255 321.586896 C97.14426939 317.88636919 93.43402855 314.18195601 89.72434074 310.47697359 C81.85071691 302.61441379 73.97286288 294.75609869 66.09456474 286.89822298 C57.58378441 278.40949759 49.07374965 269.92003261 40.56859434 261.42567074 C36.88531084 257.74735072 33.19960759 254.07147832 29.51199359 250.39749998 C27.21461834 248.10761462 24.91934425 245.81563186 22.62461883 243.52309138 C21.56534757 242.46568271 20.50521696 241.40913406 19.44413596 240.35354143 C14.12700672 235.06303771 8.93296824 229.75256647 4.15706474 223.96072298 C-0.17691185 227.67117935 -2.59439082 232.36462585 -5.34293526 237.27322298 C-5.86411935 238.1960306 -6.38530343 239.11883822 -6.92228097 240.0696097 C-12.81055116 250.57081453 -18.41317751 261.21603031 -23.84293526 271.96072298 C-24.24608956 272.75623568 -24.64924386 273.55174837 -25.06461495 274.37136751 C-56.29551258 336.5536023 -73.04758768 407.92111045 -73.09293526 477.39822298 C-73.09361001 478.33692232 -73.09428475 479.27562166 -73.09497994 480.24276644 C-72.9861375 576.38827534 -36.97384862 668.41872752 28.54768974 747.85916048 C30.15706474 749.96072298 30.15706474 749.96072298 31.15706474 752.96072298 C23.23707496 753.1634664 15.76756427 752.71687441 7.96956474 751.33572298 C6.43586234 751.07057894 6.43586234 751.07057894 4.87117606 750.80007845 C-13.3629976 747.53728182 -31.34857115 743.06154576 -48.84293526 736.96072298 C-49.65085519 736.68035189 -50.45877511 736.3999808 -51.29117745 736.11111361 C-83.56316639 724.74756057 -113.89011982 708.35949045 -139.84293526 685.96072298 C-140.61121651 685.30330111 -141.37949776 684.64587923 -142.17106026 683.96853548 C-154.40093988 673.2370186 -165.95086473 661.77135986 -175.60025948 648.6477347 C-176.82158488 646.98970749 -178.06671443 645.351958 -179.31559151 643.71462923 C-209.42346315 603.60059836 -224.78284456 552.49698507 -228.84293526 502.96072298 C-228.92833565 501.94212191 -229.01373605 500.92352083 -229.10172433 499.87405306 C-235.37817669 416.92477358 -217.26992065 334.40960292 -191.52457589 256.0472098 C-190.87931427 254.07207832 -190.24360148 252.09421643 -189.61246651 250.11453158 C-184.72551139 234.83028755 -178.8733004 220.85722441 -170.84293526 206.96072298 C-169.92302804 205.36478304 -169.92302804 205.36478304 -168.98453683 203.73660189 C-144.16800896 160.9112406 -116.77022101 118.86339065 -84.84293526 80.96072298 C-83.97683914 79.92053381 -83.11096653 78.88015849 -82.24527901 77.83962923 C-76.84156422 71.37222878 -71.28578957 65.08103106 -65.54606026 58.90994173 C-63.54198364 56.74950022 -61.61588887 54.53415321 -59.69840401 52.29666048 C-55.46227056 47.43770154 -50.92087273 42.88820555 -46.35489815 38.34231478 C-44.90769141 36.90047077 -43.465915 35.45335183 -42.02457589 34.00564486 C-36.80241383 28.77883779 -31.500225 23.71536804 -25.84293526 18.96072298 C-25.15062814 18.3776639 -24.45832101 17.79460482 -23.74503487 17.19387728 C-21.59810378 15.39800139 -19.4410748 13.61507319 -17.28043526 11.83572298 C-16.56436105 11.24146517 -15.84828683 10.64720736 -15.11051339 10.03494173 C-13.03578589 8.32456583 -10.94521487 6.63707699 -8.84293526 4.96072298 C-7.88024728 4.18003451 -7.88024728 4.18003451 -6.89811105 3.38357455 C-2.44869308 -0.05218705 -2.44869308 -0.05218705 0 0 Z " fill="#FFD41C" transform="translate(388.84293526411057,396.03927701711655)"/>
<path d="M0 0 C0.66547852 0.18191895 1.33095703 0.36383789 2.01660156 0.55126953 C20.53940822 5.71495181 37.40850005 15.61864996 52 28 C53.32837891 29.10794922 53.32837891 29.10794922 54.68359375 30.23828125 C77.64536502 50.13848301 94.53398444 81.58580815 97 112 C97.91031457 129.54643366 97.97160508 147.00892057 93 164 C92.68651611 165.08958008 92.68651611 165.08958008 92.36669922 166.20117188 C82.16906224 200.45301023 58.53229432 227.96054007 27.39453125 244.9921875 C-2.89550223 261.0855495 -39.84690806 265.51138918 -73 256 C-73.66547852 255.81808105 -74.33095703 255.63616211 -75.01660156 255.44873047 C-93.53940822 250.28504819 -110.40850005 240.38135004 -125 228 C-125.88558594 227.26136719 -126.77117188 226.52273438 -127.68359375 225.76171875 C-150.64536502 205.86151699 -167.53398444 174.41419185 -170 144 C-170.91031457 126.45356634 -170.97160508 108.99107943 -166 92 C-165.79101074 91.27361328 -165.58202148 90.54722656 -165.36669922 89.79882812 C-155.16906224 55.54698977 -131.53229432 28.03945993 -100.39453125 11.0078125 C-70.10449777 -5.0855495 -33.15309194 -9.51138918 0 0 Z " fill="#FFD41C" transform="translate(787,265)"/>
</svg>
